Coordinates
version=1
nRows=20
nColumns=34
inDegrees=yes

Units are S.I. units (second, meters, Newtons, ...)
If the header above contains a line with 'inDegrees', this indicates whether rotational values are in degrees (yes) or radians (no).

endheader
time	pelvis_tilt	pelvis_list	pelvis_rotation	pelvis_tx	pelvis_ty	pelvis_tz	hip_flexion_r	hip_adduction_r	hip_rotation_r	knee_angle_r	ankle_angle_r	subtalar_angle_r	mtp_angle_r	hip_flexion_l	hip_adduction_l	hip_rotation_l	knee_angle_l	ankle_angle_l	subtalar_angle_l	mtp_angle_l	lumbar_extension	lumbar_bending	lumbar_rotation	arm_flex_r	arm_add_r	arm_rot_r	elbow_flex_r	pro_sup_r	arm_flex_l	arm_add_l	arm_rot_l	elbow_flex_l	pro_sup_l
      0.00000000	      2.79650817	     -0.79223537	      0.07095777	      0.39752111	      0.90699035	     -0.02837008	     -4.44971470	     -6.12234294	     -5.83818909	      1.68240195	      0.85875043	     -9.16380350	      0.00000000	     -3.57613325	     -9.65539697	     -6.66656176	      2.97748474	      2.76045966	     -5.16187424	      0.00000000	     -7.14444395	      2.32688042	      1.27275666	     83.70925029	      5.41095639	     57.10553377	    121.94402245	     99.61741948	     86.53871875	     -0.85719622	     69.60982653	    136.62289647	    103.52826842
      0.01666670	      0.94900776	     -1.57640355	     -0.09361589	      0.40048567	      0.90419184	     -0.02990566	     -2.57960217	     -5.18600567	     -5.90005986	      1.48401204	      3.58588410	     -7.31512886	      0.00000000	     -1.70140259	    -10.20532084	     -5.57556406	      2.21814935	      2.45919387	     -5.81591845	      0.00000000	     -5.47056519	      3.15262780	      0.36319945	     88.91218720	      3.35519229	     57.29153674	    124.16648432	     99.93692540	     90.54862080	     -2.55236807	     65.49268589	    137.49400859	    102.97754107
      0.03333330	      0.21930119	     -1.57475398	     -0.53029553	      0.39908229	      0.90479930	     -0.02927291	     -1.95899651	     -5.05905978	     -6.54973844	      0.79944646	      2.75895219	     -7.50885680	      0.00000000	     -0.89688637	    -10.14623451	     -5.47089639	      1.95798585	      1.83120970	     -5.73976262	      0.00000000	     -4.60950710	      3.04934455	     -0.34837214	     89.76892774	      2.79898454	     57.83502218	    126.37038743	    100.11845825	     91.07148614	     -4.88915241	     66.79166950	    136.57436020	    102.83370153
      0.05000000	      0.08970370	     -1.31492609	     -0.58558104	      0.39977237	      0.90531186	     -0.02869255	     -2.02435098	     -5.32427328	     -6.58416546	      0.36933518	      2.38449526	     -7.51886869	      0.00000000	     -1.07026048	     -9.94117633	     -5.32054111	      1.33012110	      0.79411964	     -6.21293282	      0.00000000	     -4.15157707	      2.50673177	     -0.17546761	     89.40073694	      2.17123088	     59.75178823	    126.66115274	    100.38465242	     90.80984047	     -4.49267179	     68.66911812	    136.30065066	    102.75956054
      0.06666670	     -0.00335687	     -1.28242043	     -0.64377286	      0.40121368	      0.90115769	     -0.02855573	     -2.12236429	     -5.32973148	     -6.58025496	      0.00000000	      2.48076147	     -7.62083441	      0.00000000	     -1.17843321	     -9.96974778	     -4.96537403	      0.98380714	      0.95786622	     -6.28489281	      0.00000000	     -3.80478663	      2.50096482	      0.23804922	     89.41058627	      2.38024827	     59.95438651	    126.67295907	    100.42519956	     90.77246704	     -4.40045709	     68.98203351	    136.22372809	    102.75314866
      0.08333330	     -0.44738033	     -1.23580138	     -0.78000328	      0.40120630	      0.90313056	     -0.02806741	     -1.58182898	     -5.32275030	     -6.10299384	      0.00000000	      2.14263657	     -8.20917267	      0.00000000	     -0.87546785	     -9.89028047	     -4.31565688	      0.66541935	      0.29333916	     -8.02403428	      0.00000000	     -2.91157664	      2.47416494	      0.69856100	     88.85575129	      2.15581045	     61.73367565	    125.92991124	    100.93350703	     90.43254726	     -3.86832049	     71.29470661	    135.93936816	    102.66954453
      0.10000000	     -0.40987616	     -1.24704293	     -0.77463653	      0.40121092	      0.90319915	     -0.02774469	     -1.61972159	     -5.26326568	     -6.14539951	      0.00000000	      2.13178416	     -8.24649086	      0.00000000	     -0.96170824	     -9.94359077	     -4.25483657	      0.70250033	      0.29717072	     -8.03608783	      0.00000000	     -2.79457736	      2.35704988	      0.79985332	     88.82000255	      2.20146991	     61.75454220	    125.92428615	    100.94194099	     90.41708785	     -3.91187014	     71.30199185	    135.96331661	    102.66640075
      0.11666670	     -0.36626760	     -1.15744535	     -0.78038726	      0.39886947	      0.90071322	     -0.02932707	     -1.58919909	     -5.39094450	     -6.46783591	      0.00000000	      1.93996871	     -8.59080274	      0.00000000	     -1.08114797	     -9.75770281	     -4.24850840	      0.61025838	      0.24247405	     -8.46538089	      0.00000000	     -2.71177867	      2.38252738	      0.77306288	     88.43188153	      1.89472322	     62.02184722	    125.78173047	    101.00764087	     90.31652371	     -4.15625993	     71.36645024	    136.10080651	    102.64405687
      0.13333330	     -0.59881806	     -1.12713918	     -0.65862862	      0.39990281	      0.89928509	     -0.02950885	     -1.32240329	     -5.45684052	     -5.83196840	      0.00000000	      1.16026347	    -10.04306485	      0.00000000	     -0.67490375	     -9.67410117	     -2.91410834	      0.85530588	     -1.07997080	    -11.15302595	      0.00000000	     -2.53387126	      2.54584249	      0.66286563	     88.95388904	      2.08649103	     62.39581857	    125.01994575	    101.41394435	     90.25269486	     -4.00014689	     70.23206339	    137.01959113	    102.39284272
      0.15000000	     -0.58052816	     -1.09497385	     -0.63203409	      0.40052872	      0.90182003	     -0.02897679	     -1.33266666	     -5.50540829	     -5.81623102	      0.00000000	      1.16333188	    -10.04354178	      0.00000000	     -0.69965498	     -9.66311493	     -2.91017078	      0.89273618	     -1.10988834	    -11.15540681	      0.00000000	     -2.43060906	      2.58745586	      0.65661136	     88.97291561	      2.06372319	     62.39233344	    124.99692557	    101.41794333	     90.32438590	     -3.94347051	     70.19180686	    137.03709076	    102.38804608
      0.16666670	     -0.58061049	     -1.07462894	     -0.58100406	      0.40111937	      0.90332903	     -0.02838867	     -1.38919649	     -5.53903042	     -5.77166803	      0.00000000	      1.15114660	    -10.03348759	      0.00000000	     -0.70866340	     -9.63917405	     -2.86301089	      0.95945555	     -1.18050715	    -11.13588396	      0.00000000	     -2.29598468	      2.63660450	      0.68935727	     88.99004918	      2.05552324	     62.38248922	    124.96367243	    101.42169535	     90.41350919	     -3.87260445	     70.14227468	    137.03721153	    102.38182202
      0.18333330	     -0.69256870	     -1.04844410	     -0.47821826	      0.40198405	      0.90315878	     -0.02847543	     -1.33472465	     -5.52905045	     -5.65996537	      0.00000000	      1.08747786	    -10.05841560	      0.00000000	     -0.48600273	     -9.63875150	     -2.64757346	      1.13265381	     -1.60074977	    -11.09480058	      0.00000000	     -2.35620162	      2.65462377	      0.89661099	     88.94177496	      2.27464409	     62.37420343	    124.85348460	    101.43938826	     90.62384909	     -3.57777268	     70.00281848	    136.83108039	    102.36161993
      0.20000000	     -0.86419837	     -1.01017851	     -0.37598852	      0.40143706	      0.90202917	     -0.02838750	     -1.18306816	     -5.54947015	     -5.67768757	      0.00000000	      1.05348546	    -10.15351571	      0.00000000	     -0.32534176	     -9.60735401	     -2.47139566	      1.06906980	     -1.93022447	    -11.15943024	      0.00000000	     -2.44082045	      2.65052028	      1.30189201	     89.04730342	      2.86848267	     62.38338772	    124.65397792	    101.45876943	     90.87886848	     -2.88030985	     69.95814824	    136.58620602	    102.35447866
      0.21666670	     -0.90232760	     -1.02509583	     -0.24975663	      0.40034613	      0.90140789	     -0.02815490	     -1.12937656	     -5.50010887	     -5.66007392	      0.00000000	      1.04254866	    -10.15333085	      0.00000000	     -0.25851962	     -9.62954821	     -2.49684138	      0.99566554	     -1.96424542	    -11.19659039	      0.00000000	     -2.54543818	      2.56943411	      1.39354024	     89.04593075	      2.91544756	     62.38730328	    124.63711796	    101.46166506	     90.88283624	     -2.89381799	     69.97850240	    136.54367481	    102.35592740
      0.23333330	     -0.96733409	     -1.02118744	     -0.29000897	      0.40193967	      0.90278720	     -0.02844623	     -1.05357087	     -5.48652238	     -5.67222237	      0.00000000	      0.93249091	    -10.21687790	      0.00000000	     -0.24035450	     -9.61831775	     -2.23074239	      0.88568799	     -2.41393504	    -11.17629569	      0.00000000	     -2.58817431	      2.71406202	      1.97965977	     88.94718456	      3.24013676	     62.42670372	    124.60397424	    101.48411203	     91.04265545	     -2.72717710	     70.22866129	    136.25370836	    102.37633119
      0.25000000	     -1.04434811	     -1.09355818	     -0.39870404	      0.40114263	      0.90433986	     -0.02885263	     -0.88529132	     -5.39282707	     -5.25613743	      0.00000000	      0.53552863	    -10.76059008	      0.00000000	     -0.30241852	     -9.63581670	     -2.08836619	      0.54665831	     -3.69782536	    -12.57955770	      0.00000000	     -2.52425803	      2.58328552	      2.64636996	     88.53282705	      2.30222682	     62.81726933	    124.95792655	    101.69920967	     91.15866433	     -2.24822311	     71.94928904	    135.06794142	    102.56154191
      0.26666670	     -1.07632831	     -1.11979299	     -0.38014078	      0.40054283	      0.90270480	     -0.02952900	     -0.82632837	     -5.39460867	     -5.26655529	      0.00000000	      0.52632566	    -10.76756275	      0.00000000	     -0.25100005	     -9.61770097	     -2.07041104	      0.48358124	     -3.70830357	    -12.57478827	      0.00000000	     -2.66371587	      2.59671039	      2.66799006	     88.48446862	      2.25492363	     62.82888451	    124.95856429	    101.70237114	     91.13787444	     -2.28583039	     71.94551068	    135.05682488	    102.56250775
      0.28333330	     -1.11759525	     -1.12841866	     -0.33683682	      0.40075534	      0.89968667	     -0.02870944	     -0.78602564	     -5.39947076	     -5.25223125	      0.00000000	      0.63858095	    -10.86556828	      0.00000000	     -0.21698882	     -9.62869947	     -2.02362749	      0.31825159	     -3.83122048	    -12.61370247	      0.00000000	     -2.58614644	      2.61625670	      2.71497296	     88.58003487	      1.83799518	     62.69883067	    124.88793631	    101.71809749	     91.40278624	     -2.38058304	     71.62311060	    135.12921322	    102.55948629
      0.30000000	     -1.11504452	     -1.12561230	     -0.29505507	      0.40220763	      0.90363238	     -0.02763140	     -0.85087206	     -5.39600527	     -5.22188929	      0.00000000	      0.64339662	    -10.85637625	      0.00000000	     -0.20864190	     -9.65553247	     -2.00665524	      0.29268992	     -3.84781509	    -12.61225008	      0.00000000	     -2.50162879	      2.56484837	      2.76982782	     88.60812674	      1.85864024	     62.65544257	    124.90383098	    101.71834056	     91.41741615	     -2.40671390	     71.57913262	    135.13924665	    102.55937700
      0.31666670	     -1.10200906	     -1.11718899	     -0.31398522	      0.39986672	      0.90716173	     -0.02799025	     -0.86358271	     -5.40116537	     -5.21950193	      0.00000000	      0.64547645	    -10.85586491	      0.00000000	     -0.18152696	     -9.66790918	     -2.00110902	      0.26865797	     -3.84797537	    -12.61091119	      0.00000000	     -2.49049466	      2.56265306	      2.77567485	     88.60605336	      1.86330002	     62.65046036	    124.91109000	    101.71832715	     91.41089169	     -2.41014401	     71.57734737	    135.14000891	    102.55952260
